<?xml version="1.0" encoding="utf-8"?>
<!-- Generator: Adobe Illustrator 16.0.5, SVG Export Plug-In . SVG Version: 6.00 Build 0)  -->
<!DOCTYPE svg PUBLIC "-//W3C//DTD SVG 1.1//EN" "http://www.w3.org/Graphics/SVG/1.1/DTD/svg11.dtd">
<svg version="1.1" xmlns="http://www.w3.org/2000/svg" xmlns:xlink="http://www.w3.org/1999/xlink" x="0px" y="0px" width="16px"
	 height="16px" viewBox="0 0 16 16" enable-background="new 0 0 16 16" xml:space="preserve">
<g id="svg8" xmlns:dc="http://purl.org/dc/elements/1.1/" xmlns:cc="http://creativecommons.org/ns#" xmlns:rdf="http://www.w3.org/1999/02/22-rdf-syntax-ns#" xmlns:svg="http://www.w3.org/2000/svg" xmlns:sodipodi="http://sodipodi.sourceforge.net/DTD/sodipodi-0.dtd" xmlns:inkscape="http://www.inkscape.org/namespaces/inkscape" inkscape:version="0.92.3 (2405546, 2018-03-11)" sodipodi:docname="icon_transition_immediate.svg">
	
		<sodipodi:namedview  inkscape:cy="5.3391396" inkscape:cx="4.0199579" inkscape:zoom="20.85965" showgrid="false" guidetolerance="10" gridtolerance="10" objecttolerance="10" borderopacity="1" pagecolor="#ffffff" bordercolor="#666666" id="namedview10" inkscape:current-layer="g4" inkscape:window-maximized="0" inkscape:window-y="27" inkscape:window-x="67" inkscape:window-height="782" inkscape:window-width="1403" inkscape:pageshadow="2" inkscape:pageopacity="0">
		</sodipodi:namedview>
	<g id="g6" transform="translate(-2,-1036.4)">
		<g id="g4">
			<path id="path2" inkscape:connector-curvature="0" fill="#E0E0E0" d="M8.511,1040.497c-0.427,0.008-0.771,0.353-0.771,0.779
				v6.245c0,0.623,0.695,0.995,1.213,0.649l4.683-3.122c0.463-0.309,0.463-0.99,0-1.299l-4.683-3.122
				C8.821,1040.541,8.667,1040.495,8.511,1040.497L8.511,1040.497z"/>
		</g>
	</g>
	<rect x="0.906" y="6.984" fill="#E0E0E0" width="5.594" height="2.031"/>
</g>
<g id="Layer_2">
	<path fill="#E0E0E0" d="M33.031,15.625c0,1.104-0.896,2-2,2H20.656c-1.104,0-2-0.896-2-2V5.25c0-1.104,0.896-2,2-2h10.375
		c1.104,0,2,0.896,2,2V15.625z"/>
	<path fill="#E0E0E0" d="M11.094,0.906H4.906c-2.206,0-4,1.794-4,4v0.078h2V4.906c0-1.104,0.896-2,2-2h6.188c1.104,0,2,0.896,2,2
		v6.188c0,1.104-0.896,2-2,2H4.906c-1.104,0-2-0.896-2-2v-0.078h-2v0.078c0,2.206,1.794,4,4,4h6.188c2.206,0,4-1.794,4-4V4.906
		C15.094,2.701,13.3,0.906,11.094,0.906z"/>
</g>
</svg>
